<?xml version="1.0" encoding="UTF-8" standalone="no"?>
<!-- Created with Inkscape (http://www.inkscape.org/) -->

<svg
   xmlns:dc="http://purl.org/dc/elements/1.1/"
   xmlns:cc="http://creativecommons.org/ns#"
   xmlns:rdf="http://www.w3.org/1999/02/22-rdf-syntax-ns#"
   xmlns:svg="http://www.w3.org/2000/svg"
   xmlns="http://www.w3.org/2000/svg"
   xmlns:sodipodi="http://sodipodi.sourceforge.net/DTD/sodipodi-0.dtd"
   xmlns:inkscape="http://www.inkscape.org/namespaces/inkscape"
   width="70mm"
   height="16mm"
   viewBox="0 0 70 16"
   version="1.1"
   id="svg2007"
   inkscape:version="0.92.3 (2405546, 2018-03-11)"
   sodipodi:docname="essonne.svg">
  <defs
     id="defs2001">
    <clipPath
       clipPathUnits="userSpaceOnUse"
       id="clipPath2210">
      <path
         d="M 0,0 H 595.276 V 841.89 H 0 Z"
         id="path2208"
         inkscape:connector-curvature="0" />
    </clipPath>
    <clipPath
       clipPathUnits="userSpaceOnUse"
       id="clipPath2194">
      <path
         d="M 0,0 H 595.276 V 841.89 H 0 Z"
         id="path2192"
         inkscape:connector-curvature="0" />
    </clipPath>
  </defs>
  <sodipodi:namedview
     id="base"
     pagecolor="#ffffff"
     bordercolor="#666666"
     borderopacity="1.0"
     inkscape:pageopacity="0.0"
     inkscape:pageshadow="2"
     inkscape:zoom="2.8"
     inkscape:cx="171.68069"
     inkscape:cy="-33.635524"
     inkscape:document-units="mm"
     inkscape:current-layer="g686"
     showgrid="false"
     fit-margin-top="0"
     fit-margin-left="0"
     fit-margin-right="0"
     fit-margin-bottom="0"
     inkscape:window-width="3200"
     inkscape:window-height="1674"
     inkscape:window-x="0"
     inkscape:window-y="60"
     inkscape:window-maximized="1" />
  <metadata
     id="metadata2004">
    <rdf:RDF>
      <cc:Work
         rdf:about="">
        <dc:format>image/svg+xml</dc:format>
        <dc:type
           rdf:resource="http://purl.org/dc/dcmitype/StillImage" />
        <dc:title></dc:title>
      </cc:Work>
    </rdf:RDF>
  </metadata>
  <g
     inkscape:label="Calque 1"
     inkscape:groupmode="layer"
     id="layer1"
     transform="translate(-46.881038,-56.858528)">
    <g
       transform="matrix(0.35277777,0,0,-0.35277777,15.444325,204.73418)"
       id="g2204">
      <g
         id="g2206"
         clip-path="url(#clipPath2210)">
        <g
           id="g686"
           transform="translate(40.500001,-124.5)">
          <g
             id="g172"
             transform="translate(5.6360352)">
            <g
               id="text2154"
               style="font-variant:normal;font-weight:normal;font-stretch:normal;font-size:3.88055539px;font-family:Montserrat;-inkscape-font-specification:Montserrat-Regular;writing-mode:lr-tb;fill:#2a3692;fill-opacity:1;fill-rule:nonzero;stroke:none;stroke-width:0.35277775"
               transform="matrix(2.8346458,0,0,-2.8346458,-299.73884,1196.5317)"
               aria-label="TERRITOIRE DE L'ESSONNE">
              <path
                 inkscape:connector-curvature="0"
                 id="path2223"
                 style="stroke-width:0.35277775"
                 d="M 162.67862,235.39331 H 161.724 v -0.24836 h 2.1964 v 0.24836 h -0.95462 v 2.46803 h -0.28716 z" />
              <path
                 inkscape:connector-curvature="0"
                 id="path2225"
                 style="stroke-width:0.35277775"
                 d="m 166.30003,237.61299 v 0.24835 h -1.92088 v -2.71639 h 1.86267 v 0.24836 h -1.57551 v 0.96626 h 1.40476 v 0.24447 h -1.40476 v 1.00895 z" />
              <path
                 inkscape:connector-curvature="0"
                 id="path2227"
                 style="stroke-width:0.35277775"
                 d="m 168.83373,237.86134 -0.62089,-0.87312 q -0.10478,0.0116 -0.21731,0.0116 h -0.72955 v 0.86148 h -0.28716 v -2.71639 h 1.01671 q 0.51999,0 0.81491,0.24836 0.29493,0.24836 0.29493,0.68298 0,0.3182 -0.16299,0.5394 -0.1591,0.21731 -0.4579,0.31432 l 0.66357,0.93133 z m -0.84596,-1.10595 q 0.40357,0 0.617,-0.17851 0.21343,-0.17851 0.21343,-0.50059 0,-0.32985 -0.21343,-0.50447 -0.21343,-0.17851 -0.617,-0.17851 h -0.72179 v 1.36208 z" />
              <path
                 inkscape:connector-curvature="0"
                 id="path2229"
                 style="stroke-width:0.35277775"
                 d="m 171.63803,237.86134 -0.62089,-0.87312 q -0.10477,0.0116 -0.21731,0.0116 h -0.72954 v 0.86148 h -0.28716 v -2.71639 h 1.0167 q 0.52,0 0.81492,0.24836 0.29492,0.24836 0.29492,0.68298 0,0.3182 -0.16298,0.5394 -0.1591,0.21731 -0.45791,0.31432 l 0.66358,0.93133 z m -0.84596,-1.10595 q 0.40358,0 0.61701,-0.17851 0.21343,-0.17851 0.21343,-0.50059 0,-0.32985 -0.21343,-0.50447 -0.21343,-0.17851 -0.61701,-0.17851 h -0.72178 v 1.36208 z" />
              <path
                 inkscape:connector-curvature="0"
                 id="path2231"
                 style="stroke-width:0.35277775"
                 d="m 172.58744,235.14495 h 0.28716 v 2.71639 h -0.28716 z" />
              <path
                 inkscape:connector-curvature="0"
                 id="path2233"
                 style="stroke-width:0.35277775"
                 d="m 174.28997,235.39331 h -0.95462 v -0.24836 h 2.1964 v 0.24836 h -0.95462 v 2.46803 h -0.28716 z" />
              <path
                 inkscape:connector-curvature="0"
                 id="path2235"
                 style="stroke-width:0.35277775"
                 d="m 177.14005,237.88463 q -0.40357,0 -0.73342,-0.17851 -0.32597,-0.18238 -0.51223,-0.49671 -0.18239,-0.31432 -0.18239,-0.70626 0,-0.39194 0.18239,-0.70626 0.18626,-0.31433 0.51223,-0.49283 0.32985,-0.18239 0.73342,-0.18239 0.40358,0 0.72567,0.17851 0.32597,0.1785 0.51223,0.49671 0.18627,0.31432 0.18627,0.70626 0,0.39194 -0.18627,0.71014 -0.18626,0.31433 -0.51223,0.49283 -0.32209,0.17851 -0.72567,0.17851 z m 0,-0.25612 q 0.32209,0 0.58209,-0.14358 0.26,-0.14746 0.40746,-0.40358 0.14746,-0.26 0.14746,-0.5782 0,-0.31821 -0.14746,-0.57432 -0.14746,-0.26 -0.40746,-0.40358 -0.26,-0.14746 -0.58209,-0.14746 -0.32208,0 -0.58596,0.14746 -0.26,0.14358 -0.41134,0.40358 -0.14746,0.25611 -0.14746,0.57432 0,0.3182 0.14746,0.5782 0.15134,0.25612 0.41134,0.40358 0.26388,0.14358 0.58596,0.14358 z" />
              <path
                 inkscape:connector-curvature="0"
                 id="path2237"
                 style="stroke-width:0.35277775"
                 d="m 179.21166,235.14495 h 0.28717 v 2.71639 h -0.28717 z" />
              <path
                 inkscape:connector-curvature="0"
                 id="path2239"
                 style="stroke-width:0.35277775"
                 d="m 182.24135,237.86134 -0.62089,-0.87312 q -0.10478,0.0116 -0.21731,0.0116 h -0.72955 v 0.86148 h -0.28716 v -2.71639 h 1.01671 q 0.51999,0 0.81491,0.24836 0.29493,0.24836 0.29493,0.68298 0,0.3182 -0.16299,0.5394 -0.1591,0.21731 -0.4579,0.31432 l 0.66357,0.93133 z m -0.84596,-1.10595 q 0.40357,0 0.61701,-0.17851 0.21343,-0.17851 0.21343,-0.50059 0,-0.32985 -0.21343,-0.50447 -0.21344,-0.17851 -0.61701,-0.17851 h -0.72179 v 1.36208 z" />
              <path
                 inkscape:connector-curvature="0"
                 id="path2241"
                 style="stroke-width:0.35277775"
                 d="m 185.11163,237.61299 v 0.24835 h -1.92088 v -2.71639 h 1.86267 v 0.24836 h -1.57551 v 0.96626 h 1.40476 v 0.24447 h -1.40476 v 1.00895 z" />
              <path
                 inkscape:connector-curvature="0"
                 id="path2243"
                 style="stroke-width:0.35277775"
                 d="m 162.15086,240.12886 h 1.10596 q 0.43074,0 0.76059,0.17463 0.32985,0.17074 0.51223,0.48118 0.18239,0.30657 0.18239,0.70238 0,0.39582 -0.18239,0.70627 -0.18238,0.30656 -0.51223,0.48118 -0.32985,0.17075 -0.76059,0.17075 h -1.10596 z m 1.09044,2.46803 q 0.35701,0 0.62477,-0.1397 0.26776,-0.14358 0.41522,-0.39193 0.14746,-0.25224 0.14746,-0.57821 0,-0.32596 -0.14746,-0.57432 -0.14746,-0.25223 -0.41522,-0.39193 -0.26776,-0.14358 -0.62477,-0.14358 h -0.80327 v 2.21967 z" />
              <path
                 inkscape:connector-curvature="0"
                 id="path2245"
                 style="stroke-width:0.35277775"
                 d="m 167.27774,242.59689 v 0.24836 h -1.92087 v -2.71639 h 1.86267 v 0.24836 h -1.57551 v 0.96625 h 1.40476 v 0.24448 h -1.40476 v 1.00894 z" />
              <path
                 inkscape:connector-curvature="0"
                 id="path2247"
                 style="stroke-width:0.35277775"
                 d="m 168.97215,240.12886 h 0.28716 v 2.46803 h 1.52118 v 0.24836 h -1.80834 z" />
              <path
                 inkscape:connector-curvature="0"
                 id="path2249"
                 style="stroke-width:0.35277775"
                 d="m 171.08645,240.12886 h 0.24447 l -0.0194,1.02447 h -0.20567 z" />
              <path
                 inkscape:connector-curvature="0"
                 id="path2251"
                 style="stroke-width:0.35277775"
                 d="m 173.96261,242.59689 v 0.24836 h -1.92088 v -2.71639 h 1.86267 v 0.24836 h -1.57551 v 0.96625 h 1.40477 v 0.24448 h -1.40477 v 1.00894 z" />
              <path
                 inkscape:connector-curvature="0"
                 id="path2253"
                 style="stroke-width:0.35277775"
                 d="m 175.39035,242.86853 q -0.30268,0 -0.58208,-0.097 -0.27552,-0.097 -0.42687,-0.25612 l 0.11254,-0.22119 q 0.14746,0.14746 0.39194,0.24059 0.24447,0.0893 0.50447,0.0893 0.36477,0 0.54716,-0.13194 0.18238,-0.13582 0.18238,-0.34925 0,-0.16298 -0.10089,-0.26 -0.097,-0.097 -0.2406,-0.14746 -0.14358,-0.0543 -0.39969,-0.11642 -0.30657,-0.0776 -0.48895,-0.14746 -0.18239,-0.0737 -0.31433,-0.22119 -0.12806,-0.14746 -0.12806,-0.3997 0,-0.20567 0.10866,-0.37253 0.10866,-0.17074 0.33373,-0.27164 0.22507,-0.10089 0.5588,-0.10089 0.23283,0 0.45402,0.066 0.22507,0.0621 0.38806,0.17462 l -0.097,0.22895 q -0.17074,-0.11253 -0.36477,-0.16686 -0.19403,-0.0582 -0.38029,-0.0582 -0.35701,0 -0.5394,0.1397 -0.17851,0.13582 -0.17851,0.35313 0,0.16299 0.097,0.26388 0.10089,0.097 0.24835,0.15134 0.15135,0.0504 0.40358,0.11254 0.2988,0.0737 0.48119,0.14746 0.18627,0.0699 0.31433,0.21731 0.12805,0.14358 0.12805,0.39194 0,0.20567 -0.11253,0.37641 -0.10866,0.16686 -0.33761,0.26776 -0.22895,0.097 -0.56268,0.097 z" />
              <path
                 inkscape:connector-curvature="0"
                 id="path2255"
                 style="stroke-width:0.35277775"
                 d="m 177.7778,242.86853 q -0.30268,0 -0.58208,-0.097 -0.27552,-0.097 -0.42686,-0.25612 l 0.11253,-0.22119 q 0.14746,0.14746 0.39194,0.24059 0.24447,0.0893 0.50447,0.0893 0.36477,0 0.54716,-0.13194 0.18238,-0.13582 0.18238,-0.34925 0,-0.16298 -0.10089,-0.26 -0.097,-0.097 -0.24059,-0.14746 -0.14358,-0.0543 -0.3997,-0.11642 -0.30657,-0.0776 -0.48895,-0.14746 -0.18239,-0.0737 -0.31433,-0.22119 -0.12805,-0.14746 -0.12805,-0.3997 0,-0.20567 0.10865,-0.37253 0.10866,-0.17074 0.33373,-0.27164 0.22507,-0.10089 0.5588,-0.10089 0.23283,0 0.45402,0.066 0.22508,0.0621 0.38806,0.17462 l -0.097,0.22895 q -0.17075,-0.11253 -0.36478,-0.16686 -0.19402,-0.0582 -0.38029,-0.0582 -0.35701,0 -0.5394,0.1397 -0.1785,0.13582 -0.1785,0.35313 0,0.16299 0.097,0.26388 0.10089,0.097 0.24836,0.15134 0.15134,0.0504 0.40357,0.11254 0.29881,0.0737 0.48119,0.14746 0.18627,0.0699 0.31433,0.21731 0.12806,0.14358 0.12806,0.39194 0,0.20567 -0.11254,0.37641 -0.10866,0.16686 -0.33761,0.26776 -0.22895,0.097 -0.56268,0.097 z" />
              <path
                 inkscape:connector-curvature="0"
                 id="path2257"
                 style="stroke-width:0.35277775"
                 d="m 180.60375,242.86853 q -0.40357,0 -0.73342,-0.1785 -0.32597,-0.18239 -0.51223,-0.49671 -0.18239,-0.31433 -0.18239,-0.70627 0,-0.39193 0.18239,-0.70626 0.18626,-0.31432 0.51223,-0.49283 0.32985,-0.18238 0.73342,-0.18238 0.40358,0 0.72567,0.1785 0.32596,0.17851 0.51223,0.49671 0.18627,0.31433 0.18627,0.70626 0,0.39194 -0.18627,0.71015 -0.18627,0.31432 -0.51223,0.49283 -0.32209,0.1785 -0.72567,0.1785 z m 0,-0.25611 q 0.32209,0 0.58209,-0.14358 0.25999,-0.14747 0.40746,-0.40358 0.14746,-0.26 0.14746,-0.57821 0,-0.3182 -0.14746,-0.57432 -0.14747,-0.25999 -0.40746,-0.40358 -0.26,-0.14746 -0.58209,-0.14746 -0.32208,0 -0.58596,0.14746 -0.26,0.14359 -0.41134,0.40358 -0.14746,0.25612 -0.14746,0.57432 0,0.31821 0.14746,0.57821 0.15134,0.25611 0.41134,0.40358 0.26388,0.14358 0.58596,0.14358 z" />
              <path
                 inkscape:connector-curvature="0"
                 id="path2259"
                 style="stroke-width:0.35277775"
                 d="m 184.94549,240.12886 v 2.71639 h -0.23671 l -1.74625,-2.20416 v 2.20416 h -0.28717 v -2.71639 h 0.23672 l 1.75013,2.20416 v -2.20416 z" />
              <path
                 inkscape:connector-curvature="0"
                 id="path2261"
                 style="stroke-width:0.35277775"
                 d="m 188.09844,240.12886 v 2.71639 h -0.23671 l -1.74625,-2.20416 v 2.20416 h -0.28716 v -2.71639 h 0.23671 l 1.75013,2.20416 v -2.20416 z" />
              <path
                 inkscape:connector-curvature="0"
                 id="path2263"
                 style="stroke-width:0.35277775"
                 d="m 190.90214,242.59689 v 0.24836 h -1.92087 v -2.71639 h 1.86266 v 0.24836 h -1.5755 v 0.96625 h 1.40476 v 0.24448 h -1.40476 v 1.00894 z" />
            </g>
            <g
               id="g621">
              <g
                 id="g2188"
                 transform="translate(3.5433067e-7,-1.1811024e-5)">
                <g
                   clip-path="url(#clipPath2194)"
                   id="g2190">
                  <g
                     transform="translate(85.2652,518.2017)"
                     id="g2196">
                    <path
                       inkscape:connector-curvature="0"
                       id="path2198"
                       style="fill:#fbcc8f;fill-opacity:1;fill-rule:nonzero;stroke:none"
                       d="m 0,0 c 0,-6.881 -5.679,-12.457 -12.685,-12.457 -7.003,0 -12.681,5.576 -12.681,12.457 0,6.88 5.678,12.457 12.681,12.457 C -5.679,12.457 0,6.88 0,0" />
                  </g>
                </g>
              </g>
              <g
                 transform="translate(79.672427,517.99038)"
                 id="g2200">
                <path
                   inkscape:connector-curvature="0"
                   id="path2202"
                   style="fill:#ffffff;fill-opacity:1;fill-rule:nonzero;stroke:none"
                   d="M 0,0 V -1.921 H -2.748 V 0.78 h 1.956 V 1.726 H -5.847 V 0.78 h 1.956 V -1.921 H -6.64 V 0 h -0.963 v -4.965 h 0.963 v 1.922 h 2.749 v -2.7 H -5.847 V -6.69 h 5.055 v 0.947 h -1.956 v 2.7 H 0 V -4.965 H 0.963 V 0 Z" />
              </g>
              <g
                 transform="translate(77.8658,542.7098)"
                 id="g2212">
                <path
                   inkscape:connector-curvature="0"
                   id="path2214"
                   style="fill:#b8aedc;fill-opacity:1;fill-rule:nonzero;stroke:none"
                   d="m 0,0 c -7.379,-1.973 -14.634,-5.029 -20.446,-9.998 -5.356,-4.581 -8.99,-11.639 -8.041,-18.748 0.788,-5.902 6.153,-9.769 11.463,-11.7 8.294,-3.014 17.634,-2.532 26.183,-1.02 8.443,1.494 16.745,4.338 24.286,8.356 0.187,0.099 1.253,0.542 1.137,0.968 -0.115,0.419 -1.27,0.29 -1.478,0.278 -2.082,-0.131 -4.473,-0.68 -6.315,-1.663 -1.122,-0.597 -2.257,-1.166 -3.406,-1.707 -0.285,-0.135 -0.569,-0.264 -0.853,-0.393 -0.103,-0.046 -1.057,-0.463 -0.275,-0.125 -0.657,-0.287 -1.323,-0.555 -1.992,-0.82 -0.563,-0.222 -1.133,-0.436 -1.704,-0.644 -0.984,-0.359 0.892,0.309 -0.091,-0.03 -0.283,-0.097 -0.568,-0.191 -0.851,-0.284 -0.563,-0.185 -1.127,-0.36 -1.693,-0.53 1.335,0.401 0.329,0.097 0.052,0.02 -0.373,-0.105 -0.746,-0.205 -1.122,-0.302 -0.279,-0.074 -0.558,-0.142 -0.837,-0.211 -1.01,-0.251 1.093,0.25 0.083,0.018 -0.551,-0.126 -1.104,-0.241 -1.657,-0.351 -0.277,-0.056 -0.551,-0.106 -0.825,-0.158 -0.971,-0.181 0.969,0.164 -0.003,0.002 -0.627,-0.106 -1.261,-0.197 -1.891,-0.282 -0.271,-0.036 -0.538,-0.069 -0.806,-0.102 -0.173,-0.02 -1.092,-0.114 -0.122,-0.014 -0.526,-0.054 -1.052,-0.096 -1.578,-0.135 -0.519,-0.038 -1.038,-0.066 -1.555,-0.088 -0.257,-0.012 -0.513,-0.02 -0.77,-0.028 -0.112,-0.003 -1.175,-0.019 -0.52,-0.014 -6.787,-0.038 -14.154,1.195 -19.558,5.664 -2.036,1.682 -3.532,4.015 -4.162,6.551 -0.805,3.244 -0.24,7.002 0.928,10.091 1.238,3.265 3.382,6.123 5.941,8.509 1.121,1.045 2.39,1.999 3.854,2.963 0.684,0.448 1.388,0.87 2.099,1.274 -0.717,-0.406 0.408,0.218 0.595,0.314 0.413,0.217 0.832,0.422 1.252,0.626 0.297,0.144 0.597,0.281 0.894,0.418 0.178,0.08 0.357,0.16 0.537,0.239 -1.053,-0.463 -0.382,-0.167 -0.154,-0.071 0.639,0.269 1.285,0.52 1.935,0.761 1.004,0.371 -1.006,-0.346 -0.004,-0.002 0.337,0.116 0.675,0.226 1.015,0.334 0.414,0.133 1.777,0.53 -0.024,0.006 0.318,0.093 0.638,0.18 0.959,0.266 1.052,0.281 2.106,0.612 3.086,1.09 0.19,0.091 1.254,0.546 1.14,0.967 C 4.592,0.715 3.438,0.586 3.228,0.574 2.14,0.506 1.048,0.28 0,0" />
              </g>
              <g
                 transform="translate(116.7557,509.9606)"
                 id="g2216">
                <path
                   inkscape:connector-curvature="0"
                   id="path2218"
                   style="fill:#f68b11;fill-opacity:1;fill-rule:nonzero;stroke:none"
                   d="m 0,0 c 0,0.106 -0.005,1.175 -0.023,1.315 0.728,0 1.261,-0.006 1.747,-0.058 1.551,-0.163 1.74,-0.913 1.74,-1.291 0,-1.595 -1.869,-2.194 -3.493,-2.166 C -0.011,-1.972 0,-0.743 0,-0.609 Z m 0.96,-1.477 c 0.864,0.075 1.463,0.593 1.463,1.297 0,0.676 -0.634,0.861 -1.463,0.849 z" />
              </g>
              <g
                 transform="translate(123.3238,507.7323)"
                 id="g2220">
                <path
                   inkscape:connector-curvature="0"
                   id="path2222"
                   style="fill:#f68b11;fill-opacity:1;fill-rule:nonzero;stroke:none"
                   d="m 0,0 c -0.201,0 -2.013,0.052 -2.244,0.052 0.012,0.262 0.012,1.32 0.012,1.438 v 0.658 c 0,0.08 -0.012,1.273 -0.012,1.395 0.254,0 1.895,0.071 2.136,0.088 l 0.024,-0.676 c -0.213,0 -1.106,-0.027 -1.202,-0.027 v -0.84 c 0.107,0 0.753,0.025 1.026,0.047 l 0.011,-0.663 c -0.153,0 -0.917,0.018 -1.037,0.018 V 0.698 c 0.137,0 0.913,-0.011 1.268,0.012 z" />
              </g>
              <g
                 transform="translate(125.9046,507.7844)"
                 id="g2224">
                <path
                   inkscape:connector-curvature="0"
                   id="path2226"
                   style="fill:#f68b11;fill-opacity:1;fill-rule:nonzero;stroke:none"
                   d="m 0,0 c 0.03,0.262 0.03,1.32 0.03,1.438 v 0.658 c 0,0.08 -0.011,1.273 -0.018,1.395 0.339,0 1.69,0.054 2.175,0.071 L 2.21,2.887 0.99,2.863 V 1.956 c 0.111,0 0.632,0.022 1.118,0.046 L 2.127,1.344 0.99,1.356 V 0.937 C 0.99,0.856 0.99,0.07 1.002,0 Z" />
              </g>
              <g
                 transform="translate(130.0219,509.2979)"
                 id="g2228">
                <path
                   inkscape:connector-curvature="0"
                   id="path2230"
                   style="fill:#f68b11;fill-opacity:1;fill-rule:nonzero;stroke:none"
                   d="m 0,0 c 0,-0.187 0.011,-1.437 0.023,-1.513 h -0.982 c 0.018,0.116 0.012,1.444 0.012,1.548 V 0.68 c 0,0.152 -0.012,1.198 -0.025,1.297 0.558,0 1.197,0.013 1.681,-0.046 C 1.472,1.843 1.906,1.552 1.906,1.1 1.906,0.674 1.634,0.354 1.191,0.099 1.338,-0.075 2.19,-0.908 2.339,-1.058 L 1.538,-1.652 C 1.437,-1.513 0.36,-0.093 0.213,0.121 0.485,0.255 0.864,0.506 0.864,0.925 0.864,1.159 0.709,1.389 0,1.396 Z" />
              </g>
              <g
                 transform="translate(132.4194,508.065)"
                 id="g2232">
                <path
                   inkscape:connector-curvature="0"
                   id="path2234"
                   style="fill:#f68b11;fill-opacity:1;fill-rule:nonzero;stroke:none"
                   d="M 0,0 C 0.206,0.35 1.694,2.862 2.067,3.391 H 2.139 C 2.718,2.57 4.062,0.437 4.333,0.057 L 3.506,-0.419 C 3.375,-0.199 2.978,0.459 2.949,0.512 L 1.25,0.442 C 1.209,0.36 0.917,-0.215 0.818,-0.424 Z M 2.646,1.103 C 2.536,1.32 2.173,1.971 2.084,2.129 1.978,1.936 1.635,1.256 1.534,1.058 Z" />
              </g>
              <g
                 transform="translate(140.7805,507.6743)"
                 id="g2236">
                <path
                   inkscape:connector-curvature="0"
                   id="path2238"
                   style="fill:#f68b11;fill-opacity:1;fill-rule:nonzero;stroke:none"
                   d="m 0,0 c -0.461,0.379 -2.481,1.99 -2.618,2.112 0.008,-0.193 0,-1.885 0.008,-2.037 L -3.529,0.11 c 0.035,0.361 0.172,2.992 0.212,3.591 l 0.068,0.018 C -2.73,3.31 -0.883,1.786 -0.663,1.6 h 0.012 c 0,0.267 -0.012,1.839 -0.006,2.025 L 0.242,3.601 C 0.213,3.252 0.15,2.024 0.106,1.065 0.09,0.64 0.059,0.221 0.053,0.024 Z" />
              </g>
              <g
                 transform="translate(144.7432,507.7441)"
                 id="g2240">
                <path
                   inkscape:connector-curvature="0"
                   id="path2242"
                   style="fill:#f68b11;fill-opacity:1;fill-rule:nonzero;stroke:none"
                   d="m 0,0 c -0.155,-0.024 -0.374,-0.039 -0.653,-0.039 -1.793,0 -2.38,0.878 -2.38,1.476 0,0.833 0.823,1.855 2.677,2.175 L -0.184,2.846 C -1.309,2.682 -1.96,2.176 -1.96,1.548 c 0,-0.46 0.42,-0.833 1.366,-0.833 0.22,0 0.41,0.018 0.54,0.036 z" />
              </g>
              <g
                 transform="translate(147.8267,507.7323)"
                 id="g2244">
                <path
                   inkscape:connector-curvature="0"
                   id="path2246"
                   style="fill:#f68b11;fill-opacity:1;fill-rule:nonzero;stroke:none"
                   d="m 0,0 c -0.2,0 -2.011,0.052 -2.243,0.052 0.011,0.262 0.011,1.32 0.011,1.438 v 0.658 c 0,0.08 -0.011,1.273 -0.011,1.395 0.253,0 1.894,0.071 2.138,0.088 l 0.022,-0.676 c -0.213,0 -1.107,-0.027 -1.201,-0.027 v -0.84 c 0.106,0 0.752,0.025 1.025,0.047 l 0.01,-0.663 c -0.153,0 -0.918,0.018 -1.035,0.018 V 0.698 c 0.137,0 0.911,-0.011 1.267,0.012 z" />
              </g>
              <g
                 transform="translate(103.7597,514.5648)"
                 id="g2248">
                <path
                   inkscape:connector-curvature="0"
                   id="path2250"
                   style="fill:#2a3692;fill-opacity:1;fill-rule:nonzero;stroke:none"
                   d="m 0,0 c 0,-0.567 0.029,-1.852 0.029,-2.161 -0.378,-0.103 -1.568,-0.343 -2.869,-0.343 -3.783,0 -5.348,2.041 -5.348,4.34 0,1.782 1.412,5.334 6.733,6.517 L -0.868,5.334 C -2.673,5.077 -4.984,3.995 -4.984,1.991 c 0,-1.442 1.233,-1.941 2.144,-1.906 v 1.099 c 0,0.412 -0.029,0.807 -0.029,1.337 H 0.013 C 0,1.836 0,1.493 0,1.062 Z" />
              </g>
              <g
                 transform="translate(108.6786,519.0576)"
                 id="g2252">
                <path
                   inkscape:connector-curvature="0"
                   id="path2254"
                   style="fill:#2a3692;fill-opacity:1;fill-rule:nonzero;stroke:none"
                   d="m 0,0 c 0,-2.331 0.085,-3.326 0.574,-3.979 0.268,-0.343 0.589,-0.478 0.982,-0.478 0.446,0 0.796,0.222 1.035,0.634 0.349,0.599 0.363,1.148 0.363,4.459 v 0.548 c 0,1.011 -0.055,2.023 -0.069,2.555 h 3.081 c 0,-0.325 0.012,-1.422 0.012,-2.571 V 0.482 C 5.978,-2.315 5.826,-4.012 4.873,-5.351 4.104,-6.43 2.8,-6.997 1.387,-6.997 c -1.035,0 -2.661,0.189 -3.614,1.835 -0.616,1.065 -0.854,2.144 -0.854,5.677 v 0.789 c 0,0.669 0.016,1.888 0.016,2.213 H 0.071 C 0.029,3.139 0,2.317 0,0.979 Z" />
              </g>
              <g
                 transform="translate(120.1399,516.7079)"
                 id="g2256">
                <path
                   inkscape:connector-curvature="0"
                   id="path2258"
                   style="fill:#2a3692;fill-opacity:1;fill-rule:nonzero;stroke:none"
                   d="m 0,0 c 0,-1.458 0.042,-4.065 0.054,-4.408 h -3.108 c 0.016,0.635 0.028,4.049 0.028,4.427 v 1.576 c 0,0.257 -0.028,3.997 -0.028,4.358 H 0.054 C 0.042,5.678 0,3.329 0,1.579 Z" />
              </g>
              <g
                 transform="translate(122.5993,518.7149)"
                 id="g2260">
                <path
                   inkscape:connector-curvature="0"
                   id="path2262"
                   style="fill:#2a3692;fill-opacity:1;fill-rule:nonzero;stroke:none"
                   d="m 0,0 c 0,0.31 -0.014,3.535 -0.055,3.946 2.394,0 4.308,-0.053 5.484,-0.241 3.346,-0.514 3.949,-2.539 3.949,-3.721 0,-4.735 -5.276,-6.605 -9.449,-6.466 C -0.028,-5.814 0,-2.195 0,-1.8 Z m 2.969,-3.774 c 1.718,0.189 3.243,1.203 3.243,3.242 0,1.801 -1.343,2.076 -3.243,2.076 z" />
              </g>
              <g
                 transform="translate(140.1143,512.1467)"
                 id="g2264">
                <path
                   inkscape:connector-curvature="0"
                   id="path2266"
                   style="fill:#2a3692;fill-opacity:1;fill-rule:nonzero;stroke:none"
                   d="m 0,0 c -1.182,0 -5.776,0.154 -6.519,0.154 0.029,0.772 0.029,3.893 0.029,4.237 v 1.938 c 0,0.239 -0.029,3.756 -0.029,4.185 0.801,0 5.072,0.205 6.269,0.257 L -0.196,8.266 C -1.338,8.266 -3.339,8.18 -3.562,8.18 V 6.414 c 0.252,0 1.722,0.069 2.947,0.138 l 0.028,-2.436 c -1.001,0 -2.696,0.051 -2.975,0.051 V 2.589 c 0.32,0 2.252,-0.035 3.521,0.036 z" />
              </g>
              <g
                 transform="translate(95.9339,526.1613)"
                 id="g2268">
                <path
                   inkscape:connector-curvature="0"
                   id="path2270"
                   style="fill:#2a3692;fill-opacity:1;fill-rule:nonzero;stroke:none"
                   d="M 0,0 C 1.372,-0.034 2.815,0.241 2.815,0.944 2.815,1.27 2.562,1.475 1.513,2.041 0.7,2.487 -0.363,3.19 -0.363,4.562 c 0,1.801 2.056,3.568 5.431,3.791 L 5.404,5.713 C 3.67,5.713 2.785,5.575 2.785,4.956 2.785,4.579 3.246,4.373 4.074,3.98 4.759,3.654 5.992,3.036 5.992,1.579 c 0,-1.785 -1.665,-3.808 -5.67,-4.186 z" />
              </g>
              <g
                 transform="translate(110.2069,523.7254)"
                 id="g2272">
                <path
                   inkscape:connector-curvature="0"
                   id="path2274"
                   style="fill:#2a3692;fill-opacity:1;fill-rule:nonzero;stroke:none"
                   d="m 0,0 c -0.449,-0.068 -0.911,-0.12 -1.512,-0.12 -4.174,0 -5.767,2.368 -5.767,4.39 0,2.42 1.973,5.473 6.368,6.433 L -0.35,7.822 C -2.954,7.291 -4.018,6.003 -4.018,4.648 c 0,-1.131 0.966,-1.938 2.66,-1.938 0.518,0 0.924,0.034 1.232,0.069 z" />
              </g>
              <g
                 transform="translate(110.982,528.598)"
                 id="g2276">
                <path
                   inkscape:connector-curvature="0"
                   id="path2278"
                   style="fill:#2a3692;fill-opacity:1;fill-rule:nonzero;stroke:none"
                   d="m 0,0 c 0,2.812 1.78,5.83 5.547,5.83 3.051,0 4.927,-1.92 4.927,-5.128 0,-2.195 -1.261,-5.694 -5.543,-5.694 C 1.513,-4.992 0,-2.333 0,0 m 7.213,0.599 c 0,1.853 -0.673,2.865 -1.834,2.865 -1.373,0 -2.116,-1.492 -2.116,-3.243 0,-1.92 0.826,-2.846 1.808,-2.846 1.301,0 2.142,1.08 2.142,3.224" />
              </g>
              <g
                 transform="translate(125.7756,530.6041)"
                 id="g2280">
                <path
                   inkscape:connector-curvature="0"
                   id="path2282"
                   style="fill:#2a3692;fill-opacity:1;fill-rule:nonzero;stroke:none"
                   d="m 0,0 c 0,-2.332 0.085,-3.328 0.576,-3.98 0.264,-0.343 0.587,-0.479 0.979,-0.479 0.448,0 0.798,0.223 1.036,0.633 0.35,0.601 0.365,1.15 0.365,4.46 v 0.548 c 0,1.012 -0.059,2.024 -0.071,2.556 h 3.08 C 5.965,3.413 5.98,2.315 5.98,1.166 V 0.48 c 0,-2.796 -0.155,-4.494 -1.106,-5.832 -0.772,-1.081 -2.072,-1.646 -3.486,-1.646 -1.038,0 -2.663,0.188 -3.614,1.834 -0.616,1.064 -0.855,2.145 -0.855,5.677 v 0.79 c 0,0.67 0.015,1.886 0.015,2.212 H 0.071 C 0.028,3.138 0,2.315 0,0.978 Z" />
              </g>
              <g
                 transform="translate(135.47,523.8459)"
                 id="g2284">
                <path
                   inkscape:connector-curvature="0"
                   id="path2286"
                   style="fill:#2a3692;fill-opacity:1;fill-rule:nonzero;stroke:none"
                   d="M 0,0 C 0.015,0.378 0.029,2.452 0.029,4.029 V 7.718 C -0.49,7.718 -2.309,7.649 -2.7,7.633 v 2.692 c 0.574,-0.067 3.597,-0.119 3.738,-0.119 h 1.105 c 0.239,0 3.025,0.052 3.641,0.119 V 7.633 C 5.545,7.649 3.194,7.718 3.068,7.718 V 3.808 C 3.068,2.299 3.082,0.291 3.109,0 Z" />
              </g>
              <g
                 transform="translate(141.9958,526.1613)"
                 id="g2288">
                <path
                   inkscape:connector-curvature="0"
                   id="path2290"
                   style="fill:#2a3692;fill-opacity:1;fill-rule:nonzero;stroke:none"
                   d="M 0,0 C 1.372,-0.034 2.814,0.241 2.814,0.944 2.814,1.27 2.561,1.475 1.512,2.041 0.7,2.487 -0.364,3.19 -0.364,4.562 c 0,1.801 2.056,3.568 5.431,3.791 L 5.405,5.713 C 3.667,5.713 2.786,5.575 2.786,4.956 2.786,4.579 3.248,4.373 4.073,3.98 4.759,3.654 5.992,3.036 5.992,1.579 c 0,-1.785 -1.666,-3.808 -5.67,-4.186 z" />
              </g>
              <g
                 transform="translate(142.0042,514.6152)"
                 id="g2292">
                <path
                   inkscape:connector-curvature="0"
                   id="path2294"
                   style="fill:#2a3692;fill-opacity:1;fill-rule:nonzero;stroke:none"
                   d="m 0,0 c 1.374,-0.033 2.816,0.24 2.816,0.944 0,0.327 -0.253,0.532 -1.303,1.098 -0.813,0.445 -1.877,1.15 -1.877,2.521 0,1.801 2.06,3.568 5.432,3.79 L 5.405,5.712 C 3.669,5.712 2.787,5.576 2.787,4.958 2.787,4.581 3.25,4.374 4.076,3.979 4.761,3.654 5.994,3.037 5.994,1.578 c 0,-1.783 -1.667,-3.806 -5.67,-4.184 z" />
              </g>
              <g
                 transform="translate(71.2438,535.3649)"
                 id="g2296">
                <path
                   inkscape:connector-curvature="0"
                   id="path2298"
                   style="fill:#f68b11;fill-opacity:1;fill-rule:nonzero;stroke:none"
                   d="m 0,0 c 0.884,4.522 9.385,5.336 11.697,0.973 2.313,-4.363 -0.48,-10.194 -6.959,-14.25 9.073,4.81 17.029,2.634 16.783,-3.928 -0.136,-3.656 -4.751,-6.242 -7.223,-6.722 1.961,-3.464 4.336,-8.36 -0.393,-11.32 -4.73,-2.957 -12.382,2.005 -13.535,10.168 3.071,-3.144 7.067,-6.615 10.386,-5.327 0,0 5.203,1.212 2.416,7.08 4.386,2.869 4.049,5.106 2.825,7.08 0,0 -3.856,5.139 -11.82,2.517 3.393,5.033 3.447,6.177 3.085,10.098 C 6.898,0.291 3.781,2.355 0,0" />
              </g>
              <g
                 transform="translate(70.2987,542.3428)"
                 id="g2300">
                <path
                   inkscape:connector-curvature="0"
                   id="path2302"
                   style="fill:#2a3692;fill-opacity:1;fill-rule:nonzero;stroke:none"
                   d="M 0,0 C -9.885,-9.745 -9.379,-18.362 -2.075,-30.378 -3.03,-8.767 0.813,-10.097 0,0" />
              </g>
              <g
                 transform="translate(67.4683,511.4048)"
                 id="g2304">
                <path
                   inkscape:connector-curvature="0"
                   id="path2306"
                   style="fill:#2a3692;fill-opacity:1;fill-rule:nonzero;stroke:none"
                   d="M 0,0 C -13.071,16.555 -27.858,5.992 -11.937,-2.835 -11.767,3.659 -6.674,1.244 0,0" />
              </g>
              <g
                 transform="translate(68.3278,510.8145)"
                 id="g2308">
                <path
                   inkscape:connector-curvature="0"
                   id="path2310"
                   style="fill:#2a3692;fill-opacity:1;fill-rule:nonzero;stroke:none"
                   d="M 0,0 C -5.535,-4.895 -0.426,-10.453 -7.626,-10.698 2.011,-15.557 3.341,-10.078 0,0" />
              </g>
            </g>
          </g>
        </g>
      </g>
    </g>
  </g>
</svg>
