<?xml version="1.0" encoding="UTF-8" standalone="no"?>
<!-- Created with Inkscape (http://www.inkscape.org/) -->

<svg
   xmlns:dc="http://purl.org/dc/elements/1.1/"
   xmlns:cc="http://creativecommons.org/ns#"
   xmlns:rdf="http://www.w3.org/1999/02/22-rdf-syntax-ns#"
   xmlns:svg="http://www.w3.org/2000/svg"
   xmlns="http://www.w3.org/2000/svg"
   xmlns:sodipodi="http://sodipodi.sourceforge.net/DTD/sodipodi-0.dtd"
   xmlns:inkscape="http://www.inkscape.org/namespaces/inkscape"
   width="196mm"
   height="48mm"
   viewBox="0 0 196 48"
   version="1.1"
   id="svg1644"
   inkscape:version="0.92.3 (2405546, 2018-03-11)"
   sodipodi:docname="header.svg">
  <defs
     id="defs1638" />
  <sodipodi:namedview
     id="base"
     pagecolor="#ffffff"
     bordercolor="#666666"
     borderopacity="1.0"
     inkscape:pageopacity="0.0"
     inkscape:pageshadow="2"
     inkscape:zoom="1.4"
     inkscape:cx="96.789352"
     inkscape:cy="38.497694"
     inkscape:document-units="mm"
     inkscape:current-layer="layer1"
     showgrid="false"
     fit-margin-top="0"
     fit-margin-left="0"
     fit-margin-right="0"
     fit-margin-bottom="0"
     inkscape:window-width="3200"
     inkscape:window-height="1674"
     inkscape:window-x="0"
     inkscape:window-y="60"
     inkscape:window-maximized="1" />
  <metadata
     id="metadata1641">
    <rdf:RDF>
      <cc:Work
         rdf:about="">
        <dc:format>image/svg+xml</dc:format>
        <dc:type
           rdf:resource="http://purl.org/dc/dcmitype/StillImage" />
        <dc:title></dc:title>
      </cc:Work>
    </rdf:RDF>
  </metadata>
  <g
     inkscape:label="Calque 1"
     inkscape:groupmode="layer"
     id="layer1"
     transform="translate(-8.7198007,-53.480437)">
    <g
       id="g135"
       transform="translate(0.26103071,-0.58678769)">
      <path
         sodipodi:nodetypes="cccccc"
         inkscape:connector-curvature="0"
         id="path4657"
         d="m 56.456077,87.540703 c 0.1201,-0.717034 0.20492,-1.470231 0.25183,-2.261431 l -1.82521,1.040765 v 0 c -0.11801,0.746686 -0.26645,1.462379 -0.44826,2.147112 z"
         style="fill:none;fill-opacity:0.53759395;stroke:#2a4598;stroke-width:0.26499999;stroke-linecap:butt;stroke-linejoin:round;stroke-miterlimit:4;stroke-dasharray:none;stroke-opacity:1" />
      <path
         id="path4661"
         d="m 54.234147,89.089894 2.08359,-0.898655 c 0.0447,-0.218376 0.10073,-0.425135 0.13849,-0.650605 l -2.02158,0.926558 c -0.0574,0.216135 -0.13637,0.412734 -0.2005,0.622702 z"
         style="fill:#2a4598;fill-opacity:1;stroke:#2a4598;stroke-width:0.26499999;stroke-linecap:butt;stroke-linejoin:round;stroke-miterlimit:4;stroke-dasharray:none;stroke-opacity:1"
         inkscape:connector-curvature="0" />
      <path
         id="path4664"
         d="m 50.161007,95.410954 1.45469,0.972034 c 2.24665,-1.950175 3.96036,-4.565295 4.70204,-8.191749 l -2.08359,0.898655 c -0.78507,2.57026 -2.0989,4.66857 -4.07314,6.32106 z"
         style="fill:none;fill-opacity:1;stroke:#2a4598;stroke-width:0.26499999;stroke-linecap:butt;stroke-linejoin:round;stroke-miterlimit:4;stroke-dasharray:none;stroke-opacity:1"
         inkscape:connector-curvature="0" />
      <path
         id="path4667"
         d="m 44.948407,98.214918 0.69608,1.500682 c 2.20238,-0.790284 4.25635,-1.844048 5.97121,-3.332612 l -1.45469,-0.972034 c -1.38484,1.159145 -3.09634,2.099016 -5.2126,2.803964 z"
         style="fill:#2a4598;fill-opacity:1;stroke:#2a4598;stroke-width:0.26499999;stroke-linecap:butt;stroke-linejoin:round;stroke-miterlimit:4;stroke-dasharray:none;stroke-opacity:1"
         inkscape:connector-curvature="0" />
      <path
         id="path4697"
         d="m 44.175327,98.439711 0.58188,1.555459 c 0.29444,-0.09605 0.59717,-0.175469 0.88728,-0.27957 l -0.69608,-1.500682 c -0.0905,0.03016 -0.17046,0.06633 -0.26252,0.0956 -0.16953,0.0539 -0.34073,0.07924 -0.51056,0.129193 z"
         style="fill:none;fill-opacity:0.53759395;stroke:#2a4598;stroke-width:0.26499999;stroke-linecap:butt;stroke-linejoin:round;stroke-miterlimit:4;stroke-dasharray:none;stroke-opacity:1"
         inkscape:connector-curvature="0" />
      <path
         id="path4700"
         d="m 43.352637,98.62988 0.60048,1.60352 c 0.26745,-0.0809 0.53931,-0.15186 0.80409,-0.23823 l -0.58188,-1.555459 c -0.27337,0.08041 -0.54871,0.119816 -0.82269,0.190169 z"
         style="fill:#2a4598;fill-opacity:1;stroke:#2a4598;stroke-width:0.26499999;stroke-linecap:butt;stroke-linejoin:round;stroke-miterlimit:4;stroke-dasharray:none;stroke-opacity:1"
         inkscape:connector-curvature="0" />
      <path
         id="path4704"
         d="m 36.431095,99.374021 -0.15503,1.972489 c 1.55103,0.0146 3.092614,-0.0815 4.595585,-0.34778 1.054217,-0.18677 2.074917,-0.46097 3.081467,-0.76533 l -0.60048,-1.60352 c -2.310471,0.593273 -4.634169,0.798346 -6.921542,0.744141 z"
         style="fill:none;fill-opacity:0.53759395;stroke:#2a4598;stroke-width:0.26499999;stroke-linecap:butt;stroke-linejoin:round;stroke-miterlimit:4;stroke-dasharray:none;stroke-opacity:1"
         inkscape:connector-curvature="0" />
      <path
         id="path4707"
         d="m 31.490828,98.791625 -0.357603,2.021065 c 1.707968,0.32522 3.431858,0.51774 5.14284,0.53382 l 0.15503,-1.972489 c -1.678325,-0.03977 -3.32978,-0.250085 -4.940267,-0.582396 z"
         style="fill:#2a4598;fill-opacity:1;stroke:#2a4598;stroke-width:0.26499999;stroke-linecap:butt;stroke-linejoin:round;stroke-miterlimit:4;stroke-dasharray:none;stroke-opacity:1"
         inkscape:connector-curvature="0" />
      <path
         id="path4710"
         d="m 30.805081,98.60249 -0.505396,2.02262 c 0.278153,0.0609 0.55431,0.13441 0.83354,0.18758 l 0.357603,-2.021065 c -0.234497,-0.04838 -0.453255,-0.13512 -0.685747,-0.189135 z"
         style="fill:none;fill-opacity:0.53759395;stroke:#2a4598;stroke-width:0.26499999;stroke-linecap:butt;stroke-linejoin:round;stroke-miterlimit:4;stroke-dasharray:none;stroke-opacity:1"
         inkscape:connector-curvature="0" />
      <path
         id="path4713"
         d="m 30.364799,98.470199 -0.59118,2.004531 c 0.177337,0.0421 0.348194,0.11143 0.526066,0.15038 l 0.505396,-2.02262 c -0.150754,-0.03502 -0.290414,-0.09496 -0.440282,-0.132291 z"
         style="fill:#2a4598;fill-opacity:1;stroke:#2a4598;stroke-width:0.26499999;stroke-linecap:butt;stroke-linejoin:round;stroke-miterlimit:4;stroke-dasharray:none;stroke-opacity:1"
         inkscape:connector-curvature="0" />
      <path
         id="path4731"
         d="m 24.749121,96.404692 -1.090891,1.903759 c 1.965592,0.902105 4.007718,1.66656 6.115389,2.166279 l 0.59118,-2.004531 C 28.388784,97.97805 26.522498,97.248281 24.749121,96.404692 Z"
         style="fill:none;fill-opacity:0.53759395;stroke:#2a4598;stroke-width:0.26499999;stroke-linecap:butt;stroke-linejoin:round;stroke-miterlimit:4;stroke-dasharray:none;stroke-opacity:1"
         inkscape:connector-curvature="0" />
      <path
         id="path4752"
         d="m 20.406749,93.846192 -1.487248,1.761133 c 1.487858,1.013291 3.067108,1.933943 4.738729,2.701126 l 1.090891,-1.903759 c -1.558198,-0.74123 -3.004723,-1.611942 -4.342372,-2.5585 z"
         style="fill:#2a4598;fill-opacity:1;stroke:#2a4598;stroke-width:0.26499999;stroke-linecap:butt;stroke-linejoin:round;stroke-miterlimit:4;stroke-dasharray:none;stroke-opacity:1"
         inkscape:connector-curvature="0" />
      <path
         id="path4755"
         d="m 19.838309,93.410558 -1.472262,1.787488 c 0.187405,0.133824 0.362348,0.279128 0.553454,0.409279 l 1.487248,-1.761133 c -0.197699,-0.139898 -0.376296,-0.292007 -0.56844,-0.435634 z"
         style="fill:none;fill-opacity:0.53759395;stroke:#2a4598;stroke-width:0.26499999;stroke-linecap:butt;stroke-linejoin:round;stroke-miterlimit:4;stroke-dasharray:none;stroke-opacity:1"
         inkscape:connector-curvature="0" />
      <path
         id="path4758"
         d="m 19.236795,92.925834 -1.482597,1.799373 c 0.206497,0.155477 0.400464,0.321892 0.611849,0.472839 l 1.472262,-1.787488 c -0.209241,-0.156403 -0.399047,-0.32417 -0.601514,-0.484724 z"
         style="fill:#2a4598;fill-opacity:1;stroke:#2a4598;stroke-width:0.26499999;stroke-linecap:butt;stroke-linejoin:round;stroke-miterlimit:4;stroke-dasharray:none;stroke-opacity:1"
         inkscape:connector-curvature="0" />
      <path
         id="path4765"
         d="m 15.254092,88.92246 -2.078943,1.468644 c 1.306613,1.579917 2.854188,3.035422 4.579049,4.334103 l 1.482597,-1.799373 C 17.682206,91.693071 16.340587,90.340056 15.254092,88.92246 Z"
         style="fill:none;fill-opacity:0.53759395;stroke:#2a4598;stroke-width:0.26499999;stroke-linecap:butt;stroke-linejoin:round;stroke-miterlimit:4;stroke-dasharray:none;stroke-opacity:1"
         inkscape:connector-curvature="0" />
      <path
         id="path4768"
         d="m 12.481652,82.828775 -3.0602783,0.523484 c 0.6903233,2.530377 1.9872033,4.902761 3.7537753,7.038845 l 2.078943,-1.468644 c -1.49333,-1.948407 -2.455733,-4.021801 -2.77244,-6.093685 z"
         style="fill:#2a4598;fill-opacity:1;stroke:#2a4598;stroke-width:0.26499999;stroke-linecap:butt;stroke-linejoin:round;stroke-miterlimit:4;stroke-dasharray:none;stroke-opacity:1"
         inkscape:connector-curvature="0" />
      <path
         id="path4771"
         d="m 12.361762,81.970949 -3.1455443,0.41031 c 0.07209,0.322842 0.118088,0.651857 0.205156,0.971 l 3.0602783,-0.523484 c -0.03277,-0.21437 -0.0947,-0.428651 -0.112655,-0.642852 -0.0062,-0.07409 -0.0019,-0.141412 -0.0072,-0.214974 z"
         style="fill:none;fill-opacity:0.53759395;stroke:#2a4598;stroke-width:0.26499999;stroke-linecap:butt;stroke-linejoin:round;stroke-miterlimit:4;stroke-dasharray:none;stroke-opacity:1"
         inkscape:connector-curvature="0" />
      <path
         id="path4774"
         d="m 12.340058,81.058343 -3.3465653,0.270266 c 0.05251,0.355928 0.144568,0.702636 0.222725,1.05265 l 3.1455443,-0.41031 c -0.02301,-0.314503 -0.01347,-0.607658 -0.0217,-0.912606 z"
         style="fill:#2a4598;fill-opacity:1;stroke:#2a4598;stroke-width:0.26499999;stroke-linecap:butt;stroke-linejoin:round;stroke-miterlimit:4;stroke-dasharray:none;stroke-opacity:1"
         inkscape:connector-curvature="0" />
      <path
         id="path4779"
         d="M 13.365319,74.689739 9.9763777,73.35597 c -1.016873,2.667638 -1.326213,5.324222 -0.999422,7.894608 0.0034,0.02651 0.01264,0.05164 0.01654,0.07803 l 3.3465623,-0.270265 c -0.06494,-2.405935 0.332376,-4.507973 1.025261,-6.368604 z"
         style="fill:none;fill-opacity:0.53759395;stroke:#2a4598;stroke-width:0.26499999;stroke-linecap:butt;stroke-linejoin:round;stroke-miterlimit:4;stroke-dasharray:none;stroke-opacity:1"
         inkscape:connector-curvature="0" />
      <path
         id="path4782"
         d="M 18.092679,67.890153 15.08356,65.72181 c -2.462537,2.513276 -4.132989,5.078487 -5.1071823,7.63416 l 3.3889413,1.333769 c 1.039244,-2.790725 2.78067,-4.996434 4.72736,-6.799586 z"
         style="fill:#2a4598;fill-opacity:1;stroke:#2a4598;stroke-width:0.26499999;stroke-linecap:butt;stroke-linejoin:round;stroke-miterlimit:4;stroke-dasharray:none;stroke-opacity:1"
         inkscape:connector-curvature="0" />
      <path
         id="path4785"
         d="m 18.655952,67.414213 -2.778125,-2.443778 c -0.262673,0.250655 -0.54759,0.499615 -0.794267,0.751375 l 3.009119,2.168343 c 0.183215,-0.169706 0.376749,-0.313376 0.563273,-0.47594 z"
         style="fill:none;fill-opacity:0.53759395;stroke:#2a4598;stroke-width:0.26499999;stroke-linecap:butt;stroke-linejoin:round;stroke-miterlimit:4;stroke-dasharray:none;stroke-opacity:1"
         inkscape:connector-curvature="0" />
      <path
         id="path4788"
         d="M 19.187702,66.984782 16.413711,64.49036 c -0.174886,0.160341 -0.36736,0.31926 -0.535884,0.480075 l 2.778125,2.443778 c 0.174451,-0.152042 0.355156,-0.283204 0.53175,-0.429431 z"
         style="fill:#2a4598;fill-opacity:1;stroke:#2a4598;stroke-width:0.26499999;stroke-linecap:butt;stroke-linejoin:round;stroke-miterlimit:4;stroke-dasharray:none;stroke-opacity:1"
         inkscape:connector-curvature="0" />
      <path
         id="path4791"
         d="m 28.967984,61.200639 -1.828313,-3.788916 c -1.120283,0.502353 -2.232483,1.0469 -3.326929,1.686719 C 20.829739,60.84233 18.42,62.650941 16.413711,64.49036 l 2.773991,2.494422 c 2.001003,-1.656917 4.114939,-2.961957 5.908166,-3.957898 1.272561,-0.706762 2.566963,-1.295726 3.872116,-1.826245 z"
         style="fill:none;fill-opacity:0.53759395;stroke:#2a4598;stroke-width:0.26499999;stroke-linecap:butt;stroke-linejoin:round;stroke-miterlimit:4;stroke-dasharray:none;stroke-opacity:1"
         inkscape:connector-curvature="0" />
      <path
         id="path4800"
         d="m 42.201287,54.247575 c -5.206756,0.09499 -10.251819,1.007363 -15.061616,3.164148 l 1.828313,3.788916 c 4.377941,-1.779547 8.935494,-2.591388 13.620873,-2.739884 z"
         style="fill:#2a4598;fill-opacity:1;stroke:#2a4598;stroke-width:0.26499999;stroke-linecap:butt;stroke-linejoin:round;stroke-miterlimit:4;stroke-dasharray:none;stroke-opacity:1"
         inkscape:connector-curvature="0" />
      <path
         id="path4803"
         d="m 43.590347,54.201067 c -0.008,-8.9e-5 -0.017,-9.53e-4 -0.0253,-0.001 -0.45863,-0.0046 -0.90768,0.03922 -1.36374,0.04754 l 0.38757,4.213179 c 0.4061,-0.01287 0.82032,0.01575 1.22835,0.01292 z"
         style="fill:none;fill-opacity:0.53759395;stroke:#2a4598;stroke-width:0.26499999;stroke-linecap:butt;stroke-linejoin:round;stroke-miterlimit:4;stroke-dasharray:none;stroke-opacity:1"
         inkscape:connector-curvature="0" />
      <path
         id="path4806"
         d="m 44.392367,54.241374 c -0.26603,-0.0069 -0.53681,-0.03749 -0.80202,-0.04031 l 0.22686,4.272608 c 0.25552,-0.0018 0.5163,0.02328 0.77256,0.02532 z"
         style="fill:#2a4598;fill-opacity:1;stroke:#2a4598;stroke-width:0.26499999;stroke-linecap:butt;stroke-linejoin:round;stroke-miterlimit:4;stroke-dasharray:none;stroke-opacity:1"
         inkscape:connector-curvature="0" />
      <path
         id="path4836"
         d="m 71.713697,63.587057 1.19269,-3.447335 c -0.42403,-0.13047 -0.85242,-0.268514 -1.27589,-0.397392 l -1.12965,3.476791 c 0.40236,0.11682 0.80996,0.24916 1.21285,0.367936 z"
         style="fill:none;fill-opacity:0.53759395;stroke:#2a4598;stroke-width:0.26499999;stroke-linecap:butt;stroke-linejoin:round;stroke-miterlimit:4;stroke-dasharray:none;stroke-opacity:1"
         inkscape:connector-curvature="0" />
      <path
         id="path4839"
         d="m 72.561187,63.844922 1.28675,-3.412194 c -0.31294,-0.09691 -0.62888,-0.196801 -0.94155,-0.293006 l -1.19269,3.447335 c 0.28132,0.08293 0.56593,0.174101 0.84749,0.257865 z"
         style="fill:#2a4598;fill-opacity:1;stroke:#2a4598;stroke-width:0.26499999;stroke-linecap:butt;stroke-linejoin:round;stroke-miterlimit:4;stroke-dasharray:none;stroke-opacity:1"
         inkscape:connector-curvature="0" />
      <path
         id="path4893"
         d="m 103.59496,68.477714 c -0.29042,-0.04872 -0.5774,-0.0693 -0.86817,-0.120923 l -0.65474,3.676263 c 0.30713,0.05978 0.61257,0.105927 0.91933,0.16278 z"
         style="fill:none;fill-opacity:0.53759395;stroke:#2a4598;stroke-width:0.26499999;stroke-linecap:butt;stroke-linejoin:round;stroke-miterlimit:4;stroke-dasharray:none;stroke-opacity:1"
         inkscape:connector-curvature="0" />
      <path
         id="path4897"
         d="m 104.62022,68.61414 c -0.34277,-0.05377 -0.68203,-0.07884 -1.02526,-0.136426 l -0.60358,3.71812 c 0.33278,0.06168 0.6614,0.09166 0.99374,0.149862 z"
         style="fill:#2a4598;fill-opacity:1;stroke:#2a4598;stroke-width:0.26499999;stroke-linecap:butt;stroke-linejoin:round;stroke-miterlimit:4;stroke-dasharray:none;stroke-opacity:1"
         inkscape:connector-curvature="0" />
      <path
         id="path4890"
         d="m 104.62022,68.61414 -0.6351,3.731556 c 3.78083,0.662183 7.53584,1.123285 11.23393,1.175639 3.42813,0.04853 6.78979,0.02563 10.10326,-0.03927 l -0.13126,-4.213181 c -3.37967,0.125527 -6.73308,0.225946 -9.972,0.252181 -3.48983,0.02827 -7.03314,-0.347591 -10.59883,-0.906921 z"
         style="fill:none;fill-opacity:0.53759395;stroke:#2a4598;stroke-width:0.26499999;stroke-linecap:butt;stroke-linejoin:round;stroke-miterlimit:4;stroke-dasharray:none;stroke-opacity:1"
         inkscape:connector-curvature="0" />
      <path
         id="path4887"
         d="m 88.532307,64.939946 -1.10226,3.409094 c 4.90061,1.437875 9.79376,2.740261 14.642003,3.684014 l 0.65474,-3.676263 C 98.028087,67.522627 93.285127,66.315568 88.532307,64.939946 Z"
         style="fill:#2a4598;fill-opacity:1;stroke:#2a4598;stroke-width:0.26499999;stroke-linecap:butt;stroke-linejoin:round;stroke-miterlimit:4;stroke-dasharray:none;stroke-opacity:1"
         inkscape:connector-curvature="0" />
      <path
         id="path4884"
         d="m 73.847937,60.432728 -1.28675,3.412194 c 4.93512,1.468207 9.90494,3.047665 14.86886,4.504118 l 1.10226,-3.409094 c -4.89935,-1.418034 -9.80749,-2.996998 -14.68437,-4.507218 z"
         style="fill:none;fill-opacity:0.53759395;stroke:#2a4598;stroke-width:0.26499999;stroke-linecap:butt;stroke-linejoin:round;stroke-miterlimit:4;stroke-dasharray:none;stroke-opacity:1"
         inkscape:connector-curvature="0" />
      <path
         sodipodi:nodetypes="ccccc"
         inkscape:connector-curvature="0"
         id="path4900"
         d="m 148.0124,72.201519 -0.66198,-4.377512 c -7.45803,0.679973 -14.93457,1.176532 -22.15937,1.444873 l 0.13126,4.213181 c 7.96909,-0.156107 15.55551,-0.627654 22.69009,-1.280542 z"
         style="fill:#2a4598;fill-opacity:1;stroke:#2a4598;stroke-width:0.26499999;stroke-linecap:butt;stroke-linejoin:round;stroke-miterlimit:4;stroke-dasharray:none;stroke-opacity:1" />
      <path
         id="path4903"
         d="m 148.99115,72.094032 -0.69505,-4.365109 c -0.31595,0.0295 -0.62963,0.06627 -0.94568,0.09508 l 0.66198,4.377512 c 0.3402,-0.03113 0.64073,-0.07549 0.97875,-0.107487 z"
         style="fill:none;fill-opacity:0.53759395;stroke:#2a4598;stroke-width:0.26499999;stroke-linecap:butt;stroke-linejoin:round;stroke-miterlimit:4;stroke-dasharray:none;stroke-opacity:1"
         inkscape:connector-curvature="0" />
      <path
         id="path4906"
         d="m 149.74562,72.008766 -0.76946,-4.349607 c -0.22732,0.02158 -0.45267,0.04853 -0.68006,0.06976 l 0.69505,4.365109 c 0.2623,-0.02483 0.49349,-0.05994 0.75447,-0.08527 z"
         style="fill:#2a4598;fill-opacity:1;stroke:#2a4598;stroke-width:0.26499999;stroke-linecap:butt;stroke-linejoin:round;stroke-miterlimit:4;stroke-dasharray:none;stroke-opacity:1"
         inkscape:connector-curvature="0" />
      <path
         id="path4939"
         d="m 165.37568,70.07865 -0.88574,-4.176489 c -5.08816,0.672264 -10.29028,1.261039 -15.51378,1.756998 l 0.76946,4.349607 c 5.57879,-0.54145 10.71805,-1.216918 15.63006,-1.930116 z"
         style="fill:none;fill-opacity:0.53759395;stroke:#2a4598;stroke-width:0.26499999;stroke-linecap:butt;stroke-linejoin:round;stroke-miterlimit:4;stroke-dasharray:none;stroke-opacity:1"
         inkscape:connector-curvature="0" />
      <path
         id="path4942"
         d="m 179.67248,67.673629 -0.98702,-3.961515 c -4.59372,0.793942 -9.30417,1.543786 -14.19552,2.190047 l 0.88574,4.176489 c 5.22277,-0.758319 9.96005,-1.58269 14.2968,-2.405021 z"
         style="fill:#2a4598;fill-opacity:1;stroke:#2a4598;stroke-width:0.26499999;stroke-linecap:butt;stroke-linejoin:round;stroke-miterlimit:4;stroke-dasharray:none;stroke-opacity:1"
         inkscape:connector-curvature="0" />
      <path
         id="path4945"
         d="m 180.62643,67.476742 -0.98185,-3.941362 c -0.32506,0.05714 -0.63227,0.120243 -0.95912,0.176734 l 0.98702,3.961515 c 0.35376,-0.06708 0.60655,-0.129856 0.95395,-0.196887 z"
         style="fill:none;fill-opacity:0.53759395;stroke:#2a4598;stroke-width:0.26499999;stroke-linecap:butt;stroke-linejoin:round;stroke-miterlimit:4;stroke-dasharray:none;stroke-opacity:1"
         inkscape:connector-curvature="0" />
      <path
         id="path4948"
         d="m 181.38556,67.318095 -0.97772,-3.925341 c -0.25887,0.04612 -0.50323,0.09692 -0.76326,0.142626 l 0.98185,3.941362 c 0.28129,-0.05428 0.48198,-0.104443 0.75913,-0.158647 z"
         style="fill:#2a4598;fill-opacity:1;stroke:#2a4598;stroke-width:0.26499999;stroke-linecap:butt;stroke-linejoin:round;stroke-miterlimit:4;stroke-dasharray:none;stroke-opacity:1"
         inkscape:connector-curvature="0" />
      <path
         id="path4951"
         d="m 193.89694,64.593197 -0.82011,-3.742407 c -3.98735,0.905833 -8.24151,1.753236 -12.66899,2.541964 l 0.97772,3.925341 c 4.98652,-0.975282 9.00677,-1.888951 12.51138,-2.724898 z"
         style="fill:none;fill-opacity:0.53759395;stroke:#2a4598;stroke-width:0.26499999;stroke-linecap:butt;stroke-linejoin:round;stroke-miterlimit:4;stroke-dasharray:none;stroke-opacity:1"
         inkscape:connector-curvature="0" />
      <path
         id="path4833"
         d="m 204.32627,57.895415 c -3.39588,1.047409 -7.18389,2.031776 -11.24944,2.955375 l 0.82011,3.742407 c 6.4432,-1.536886 10.42933,-2.698026 10.42933,-2.698027 z"
         style="fill:#2a4598;fill-opacity:1;stroke:#2a4598;stroke-width:0.26499999;stroke-linecap:butt;stroke-linejoin:round;stroke-miterlimit:4;stroke-dasharray:none;stroke-opacity:1"
         inkscape:connector-curvature="0" />
      <path
         id="path4830"
         d="m 58.459727,56.163221 -0.80667,3.808553 c 4.22873,0.83841 8.52456,1.992129 12.84779,3.247347 l 1.12965,-3.476791 c -4.432,-1.348813 -8.83501,-2.612364 -13.17077,-3.579109 z"
         style="fill:#2a4598;fill-opacity:1;stroke:#2a4598;stroke-width:0.26499999;stroke-linecap:butt;stroke-linejoin:round;stroke-miterlimit:4;stroke-dasharray:none;stroke-opacity:1"
         inkscape:connector-curvature="0" />
      <path
         id="path4655"
         d="m 44.392367,54.241374 0.1974,4.257621 c 4.26413,0.03398 8.63022,0.593855 13.06329,1.472779 l 0.80667,-3.808553 c -4.77961,-1.065711 -9.48559,-1.802828 -14.06736,-1.921847 z"
         style="fill:none;fill-opacity:0.53759395;stroke:#2a4598;stroke-width:0.26499999;stroke-linecap:butt;stroke-linejoin:round;stroke-miterlimit:4;stroke-dasharray:none;stroke-opacity:1"
         inkscape:connector-curvature="0" />
      <path
         sodipodi:nodetypes="cccc"
         inkscape:connector-curvature="0"
         id="path27"
         d="m 54.582957,71.3995 c 0.68437,5.892611 0.94081,10.863842 0.29973,14.920537 l 1.82521,-1.040765 c 0.22067,-3.722129 -0.39557,-8.284026 -2.12494,-13.879772"
         style="fill:#2a4598;fill-opacity:1;stroke:#2a4598;stroke-width:0.26499999;stroke-linecap:butt;stroke-linejoin:round;stroke-miterlimit:4;stroke-dasharray:none;stroke-opacity:1" />
      <g
         transform="translate(-5.0971203,46.927609)"
         id="g720">
        <g
           id="text4957"
           style="font-style:normal;font-weight:normal;font-size:10.58333302px;line-height:1.25;font-family:sans-serif;letter-spacing:0px;word-spacing:0px;fill:#c22e0a;fill-opacity:1;stroke:none;stroke-width:0.26458332"
           aria-label="TOUS À">
          <path
             inkscape:connector-curvature="0"
             id="path1808"
             style="font-style:normal;font-variant:normal;font-weight:500;font-stretch:normal;font-size:4.93888903px;line-height:0px;font-family:Montserrat;-inkscape-font-specification:'Montserrat Medium';letter-spacing:-0.29104164px;fill:#c22e0a;fill-opacity:1;stroke-width:0.26458332"
             d="m 24.065078,30.050586 h -1.185333 v -0.429683 h 2.859616 v 0.429683 h -1.185333 v 3.027539 h -0.48895 z" />
          <path
             inkscape:connector-curvature="0"
             id="path1810"
             style="font-style:normal;font-variant:normal;font-weight:500;font-stretch:normal;font-size:4.93888903px;line-height:0px;font-family:Montserrat;-inkscape-font-specification:'Montserrat Medium';letter-spacing:-0.29104164px;fill:#c22e0a;fill-opacity:1;stroke-width:0.26458332"
             d="m 27.503515,33.117636 q -0.523522,0 -0.943328,-0.227189 -0.419805,-0.232128 -0.661811,-0.637116 -0.237067,-0.404989 -0.237067,-0.903817 0,-0.498828 0.237067,-0.903817 0.242006,-0.404989 0.661811,-0.632178 0.419806,-0.232127 0.943328,-0.232127 0.518583,0 0.938389,0.232127 0.419805,0.227189 0.656872,0.632178 0.237067,0.40005 0.237067,0.903817 0,0.503767 -0.237067,0.908755 -0.237067,0.40005 -0.656872,0.632178 -0.419806,0.227189 -0.938389,0.227189 z m 0,-0.439561 q 0.380294,0 0.681567,-0.172861 0.306211,-0.172861 0.479072,-0.474133 0.1778,-0.306212 0.1778,-0.681567 0,-0.375356 -0.1778,-0.676628 -0.172861,-0.306211 -0.479072,-0.479072 -0.301273,-0.172861 -0.681567,-0.172861 -0.380294,0 -0.691444,0.172861 -0.306212,0.172861 -0.484012,0.479072 -0.172861,0.301272 -0.172861,0.676628 0,0.375355 0.172861,0.681567 0.1778,0.301272 0.484012,0.474133 0.31115,0.172861 0.691444,0.172861 z" />
          <path
             inkscape:connector-curvature="0"
             id="path1812"
             style="font-style:normal;font-variant:normal;font-weight:500;font-stretch:normal;font-size:4.93888903px;line-height:0px;font-family:Montserrat;-inkscape-font-specification:'Montserrat Medium';letter-spacing:-0.29104164px;fill:#c22e0a;fill-opacity:1;stroke-width:0.26458332"
             d="m 31.231957,33.117636 q -0.691444,0 -1.076678,-0.395111 -0.385233,-0.395111 -0.385233,-1.135944 v -1.965678 h 0.493889 v 1.945922 q 0,1.11125 0.972961,1.11125 0.474133,0 0.726017,-0.271639 0.251883,-0.276578 0.251883,-0.839611 v -1.945922 h 0.479072 v 1.965678 q 0,0.745772 -0.385233,1.140883 -0.385233,0.390172 -1.076678,0.390172 z" />
          <path
             inkscape:connector-curvature="0"
             id="path1814"
             style="font-style:normal;font-variant:normal;font-weight:500;font-stretch:normal;font-size:4.93888903px;line-height:0px;font-family:Montserrat;-inkscape-font-specification:'Montserrat Medium';letter-spacing:-0.29104164px;fill:#c22e0a;fill-opacity:1;stroke-width:0.26458332"
             d="m 34.422909,33.117636 q -0.390172,0 -0.75565,-0.118533 -0.360539,-0.123472 -0.567972,-0.316089 l 0.182739,-0.385233 q 0.197555,0.1778 0.503766,0.291394 0.31115,0.108656 0.637117,0.108656 0.429683,0 0.642056,-0.143228 0.212372,-0.148167 0.212372,-0.390172 0,-0.1778 -0.118533,-0.286456 -0.113595,-0.113594 -0.286456,-0.172861 -0.167922,-0.05927 -0.479072,-0.13335 -0.390172,-0.09384 -0.632178,-0.187678 -0.237067,-0.09384 -0.409928,-0.286455 -0.167922,-0.197556 -0.167922,-0.528462 0,-0.276577 0.143228,-0.498827 0.148166,-0.22225 0.4445,-0.3556 0.296333,-0.13335 0.735894,-0.13335 0.306211,0 0.602545,0.07902 0.296333,0.07902 0.508705,0.227189 l -0.162983,0.395111 q -0.217311,-0.138289 -0.464256,-0.207434 -0.246944,-0.07408 -0.484011,-0.07408 -0.419805,0 -0.632178,0.153106 -0.207433,0.153105 -0.207433,0.395111 0,0.1778 0.118533,0.291394 0.118534,0.108656 0.291395,0.172861 0.1778,0.05927 0.479072,0.128412 0.390172,0.09384 0.627239,0.187677 0.237067,0.09384 0.404989,0.286456 0.172861,0.192617 0.172861,0.518583 0,0.271639 -0.148167,0.498828 -0.148166,0.22225 -0.449439,0.3556 -0.301272,0.128411 -0.740833,0.128411 z" />
          <path
             inkscape:connector-curvature="0"
             id="path1816"
             style="font-style:normal;font-variant:normal;font-weight:500;font-stretch:normal;font-size:4.93888903px;line-height:0px;font-family:Montserrat;-inkscape-font-specification:'Montserrat Medium';letter-spacing:-0.29104164px;fill:#c22e0a;fill-opacity:1;stroke-width:0.26458332"
             d="m 39.434735,32.213819 h -1.837266 l -0.380295,0.864306 h -0.508705 l 1.565627,-3.457222 h 0.48895 l 1.570567,3.457222 H 39.81503 Z m -0.172861,-0.395111 -0.745772,-1.694039 -0.745772,1.694039 z m -1.64465,-3.121378 h 0.602545 l 0.671689,0.642056 h -0.4445 z" />
        </g>
        <g
           id="text4957-3"
           style="font-style:normal;font-weight:normal;font-size:10.58333302px;line-height:1.25;font-family:sans-serif;letter-spacing:0px;word-spacing:0px;fill:#c22e0a;fill-opacity:1;stroke:none;stroke-width:0.26458332"
           aria-label="L'UNISSONNE">
          <path
             inkscape:connector-curvature="0"
             id="path1819"
             style="font-style:normal;font-variant:normal;font-weight:500;font-stretch:normal;font-size:4.93888903px;line-height:0px;font-family:Montserrat;-inkscape-font-specification:'Montserrat Medium';letter-spacing:-0.29104164px;fill:#c22e0a;fill-opacity:1;stroke-width:0.26458332"
             d="m 22.835295,34.824375 h 0.493889 v 3.027539 h 1.871839 v 0.429683 h -2.365728 z" />
          <path
             inkscape:connector-curvature="0"
             id="path1821"
             style="font-style:normal;font-variant:normal;font-weight:500;font-stretch:normal;font-size:4.93888903px;line-height:0px;font-family:Montserrat;-inkscape-font-specification:'Montserrat Medium';letter-spacing:-0.29104164px;fill:#c22e0a;fill-opacity:1;stroke-width:0.26458332"
             d="m 25.269285,34.824375 h 0.414867 l -0.03457,1.3335 H 25.29892 Z" />
          <path
             inkscape:connector-curvature="0"
             id="path1823"
             style="font-style:normal;font-variant:normal;font-weight:500;font-stretch:normal;font-size:4.93888903px;line-height:0px;font-family:Montserrat;-inkscape-font-specification:'Montserrat Medium';letter-spacing:-0.29104164px;fill:#c22e0a;fill-opacity:1;stroke-width:0.26458332"
             d="m 27.659752,38.321108 q -0.691445,0 -1.076678,-0.395111 -0.385234,-0.395111 -0.385234,-1.135944 v -1.965678 h 0.493889 v 1.945922 q 0,1.11125 0.972961,1.11125 0.474134,0 0.726017,-0.271639 0.251884,-0.276578 0.251884,-0.839611 v -1.945922 h 0.479072 v 1.965678 q 0,0.745772 -0.385234,1.140883 -0.385233,0.390172 -1.076677,0.390172 z" />
          <path
             inkscape:connector-curvature="0"
             id="path1825"
             style="font-style:normal;font-variant:normal;font-weight:500;font-stretch:normal;font-size:4.93888903px;line-height:0px;font-family:Montserrat;-inkscape-font-specification:'Montserrat Medium';letter-spacing:-0.29104164px;fill:#c22e0a;fill-opacity:1;stroke-width:0.26458332"
             d="m 32.816381,34.824375 v 3.457222 h -0.404988 l -2.074334,-2.5781 v 2.5781 H 29.84317 v -3.457222 h 0.404989 l 2.074334,2.5781 v -2.5781 z" />
          <path
             inkscape:connector-curvature="0"
             id="path1827"
             style="font-style:normal;font-variant:normal;font-weight:500;font-stretch:normal;font-size:4.93888903px;line-height:0px;font-family:Montserrat;-inkscape-font-specification:'Montserrat Medium';letter-spacing:-0.29104164px;fill:#c22e0a;fill-opacity:1;stroke-width:0.26458332"
             d="m 33.564976,34.824375 h 0.493889 v 3.457222 h -0.493889 z" />
          <path
             inkscape:connector-curvature="0"
             id="path1829"
             style="font-style:normal;font-variant:normal;font-weight:500;font-stretch:normal;font-size:4.93888903px;line-height:0px;font-family:Montserrat;-inkscape-font-specification:'Montserrat Medium';letter-spacing:-0.29104164px;fill:#c22e0a;fill-opacity:1;stroke-width:0.26458332"
             d="m 35.815224,38.321108 q -0.390172,0 -0.75565,-0.118533 -0.360539,-0.123472 -0.567972,-0.316089 l 0.182739,-0.385233 q 0.197555,0.1778 0.503766,0.291394 0.31115,0.108656 0.637117,0.108656 0.429683,0 0.642056,-0.143228 0.212372,-0.148167 0.212372,-0.390172 0,-0.1778 -0.118534,-0.286456 -0.113594,-0.113594 -0.286455,-0.172861 -0.167922,-0.05927 -0.479072,-0.13335 -0.390173,-0.09384 -0.632178,-0.187678 -0.237067,-0.09384 -0.409928,-0.286455 -0.167922,-0.197556 -0.167922,-0.528461 0,-0.276578 0.143228,-0.498828 0.148166,-0.22225 0.4445,-0.3556 0.296333,-0.13335 0.735894,-0.13335 0.306211,0 0.602545,0.07902 0.296333,0.07902 0.508705,0.227189 l -0.162983,0.395111 q -0.217311,-0.138289 -0.464256,-0.207433 -0.246944,-0.07408 -0.484011,-0.07408 -0.419805,0 -0.632178,0.153106 -0.207433,0.153105 -0.207433,0.395111 0,0.1778 0.118533,0.291394 0.118534,0.108656 0.291395,0.172862 0.1778,0.05927 0.479072,0.128411 0.390172,0.09384 0.627239,0.187677 0.237067,0.09384 0.404989,0.286456 0.172861,0.192617 0.172861,0.518583 0,0.271639 -0.148167,0.498828 -0.148166,0.22225 -0.449439,0.3556 -0.301272,0.128411 -0.740833,0.128411 z" />
          <path
             inkscape:connector-curvature="0"
             id="path1831"
             style="font-style:normal;font-variant:normal;font-weight:500;font-stretch:normal;font-size:4.93888903px;line-height:0px;font-family:Montserrat;-inkscape-font-specification:'Montserrat Medium';letter-spacing:-0.29104164px;fill:#c22e0a;fill-opacity:1;stroke-width:0.26458332"
             d="m 38.591696,38.321108 q -0.390172,0 -0.75565,-0.118533 -0.360539,-0.123472 -0.567972,-0.316089 l 0.182739,-0.385233 q 0.197555,0.1778 0.503766,0.291394 0.31115,0.108656 0.637117,0.108656 0.429683,0 0.642056,-0.143228 0.212372,-0.148167 0.212372,-0.390172 0,-0.1778 -0.118533,-0.286456 -0.113595,-0.113594 -0.286456,-0.172861 -0.167922,-0.05927 -0.479072,-0.13335 -0.390172,-0.09384 -0.632178,-0.187678 -0.237067,-0.09384 -0.409928,-0.286455 -0.167922,-0.197556 -0.167922,-0.528461 0,-0.276578 0.143228,-0.498828 0.148166,-0.22225 0.4445,-0.3556 0.296333,-0.13335 0.735894,-0.13335 0.306211,0 0.602545,0.07902 0.296333,0.07902 0.508705,0.227189 l -0.162983,0.395111 q -0.217311,-0.138289 -0.464256,-0.207433 -0.246944,-0.07408 -0.484011,-0.07408 -0.419805,0 -0.632178,0.153106 -0.207433,0.153105 -0.207433,0.395111 0,0.1778 0.118533,0.291394 0.118534,0.108656 0.291395,0.172862 0.1778,0.05927 0.479072,0.128411 0.390172,0.09384 0.627239,0.187677 0.237067,0.09384 0.404989,0.286456 0.172861,0.192617 0.172861,0.518583 0,0.271639 -0.148167,0.498828 -0.148166,0.22225 -0.449439,0.3556 -0.301272,0.128411 -0.740833,0.128411 z" />
          <path
             inkscape:connector-curvature="0"
             id="path1833"
             style="font-style:normal;font-variant:normal;font-weight:500;font-stretch:normal;font-size:4.93888903px;line-height:0px;font-family:Montserrat;-inkscape-font-specification:'Montserrat Medium';letter-spacing:-0.29104164px;fill:#c22e0a;fill-opacity:1;stroke-width:0.26458332"
             d="m 41.921323,38.321108 q -0.523522,0 -0.943328,-0.227189 -0.419806,-0.232127 -0.661811,-0.637116 -0.237067,-0.404989 -0.237067,-0.903817 0,-0.498828 0.237067,-0.903817 0.242005,-0.404989 0.661811,-0.632178 0.419806,-0.232127 0.943328,-0.232127 0.518583,0 0.938389,0.232127 0.419805,0.227189 0.656872,0.632178 0.237067,0.40005 0.237067,0.903817 0,0.503767 -0.237067,0.908756 -0.237067,0.40005 -0.656872,0.632177 -0.419806,0.227189 -0.938389,0.227189 z m 0,-0.439561 q 0.380294,0 0.681567,-0.172861 0.306211,-0.172861 0.479072,-0.474133 0.1778,-0.306211 0.1778,-0.681567 0,-0.375356 -0.1778,-0.676628 -0.172861,-0.306211 -0.479072,-0.479072 -0.301273,-0.172861 -0.681567,-0.172861 -0.380295,0 -0.691445,0.172861 -0.306211,0.172861 -0.484011,0.479072 -0.172861,0.301272 -0.172861,0.676628 0,0.375356 0.172861,0.681567 0.1778,0.301272 0.484011,0.474133 0.31115,0.172861 0.691445,0.172861 z" />
          <path
             inkscape:connector-curvature="0"
             id="path1835"
             style="font-style:normal;font-variant:normal;font-weight:500;font-stretch:normal;font-size:4.93888903px;line-height:0px;font-family:Montserrat;-inkscape-font-specification:'Montserrat Medium';letter-spacing:-0.29104164px;fill:#c22e0a;fill-opacity:1;stroke-width:0.26458332"
             d="m 47.190699,34.824375 v 3.457222 H 46.78571 l -2.074334,-2.5781 v 2.5781 h -0.493889 v -3.457222 h 0.404989 l 2.074334,2.5781 v -2.5781 z" />
          <path
             inkscape:connector-curvature="0"
             id="path1837"
             style="font-style:normal;font-variant:normal;font-weight:500;font-stretch:normal;font-size:4.93888903px;line-height:0px;font-family:Montserrat;-inkscape-font-specification:'Montserrat Medium';letter-spacing:-0.29104164px;fill:#c22e0a;fill-opacity:1;stroke-width:0.26458332"
             d="m 50.912504,34.824375 v 3.457222 h -0.404989 l -2.074333,-2.5781 v 2.5781 h -0.493889 v -3.457222 h 0.404989 l 2.074333,2.5781 v -2.5781 z" />
          <path
             inkscape:connector-curvature="0"
             id="path1839"
             style="font-style:normal;font-variant:normal;font-weight:500;font-stretch:normal;font-size:4.93888903px;line-height:0px;font-family:Montserrat;-inkscape-font-specification:'Montserrat Medium';letter-spacing:-0.29104164px;fill:#c22e0a;fill-opacity:1;stroke-width:0.26458332"
             d="m 54.170054,37.851914 v 0.429683 h -2.508955 v -3.457222 h 2.439811 v 0.429683 h -1.945923 v 1.061861 h 1.73355 v 0.419806 h -1.73355 v 1.116189 z" />
        </g>
      </g>
    </g>
  </g>
</svg>
