<?xml version="1.0" encoding="UTF-8" standalone="no"?>
<!-- Created with Inkscape (http://www.inkscape.org/) -->

<svg
   xmlns:dc="http://purl.org/dc/elements/1.1/"
   xmlns:cc="http://creativecommons.org/ns#"
   xmlns:rdf="http://www.w3.org/1999/02/22-rdf-syntax-ns#"
   xmlns:svg="http://www.w3.org/2000/svg"
   xmlns="http://www.w3.org/2000/svg"
   xmlns:sodipodi="http://sodipodi.sourceforge.net/DTD/sodipodi-0.dtd"
   xmlns:inkscape="http://www.inkscape.org/namespaces/inkscape"
   width="128mm"
   height="20mm"
   viewBox="0 0 128 20"
   version="1.1"
   id="svg1886"
   inkscape:version="0.92.3 (2405546, 2018-03-11)"
   sodipodi:docname="lfooter.svg">
  <defs
     id="defs1880" />
  <sodipodi:namedview
     id="base"
     pagecolor="#ffffff"
     bordercolor="#666666"
     borderopacity="1.0"
     inkscape:pageopacity="0.0"
     inkscape:pageshadow="2"
     inkscape:zoom="1.979899"
     inkscape:cx="64.32658"
     inkscape:cy="-185.88766"
     inkscape:document-units="mm"
     inkscape:current-layer="layer1"
     showgrid="false"
     fit-margin-top="0"
     fit-margin-left="0"
     fit-margin-right="0"
     fit-margin-bottom="0"
     inkscape:window-width="3200"
     inkscape:window-height="1674"
     inkscape:window-x="0"
     inkscape:window-y="60"
     inkscape:window-maximized="1" />
  <metadata
     id="metadata1883">
    <rdf:RDF>
      <cc:Work
         rdf:about="">
        <dc:format>image/svg+xml</dc:format>
        <dc:type
           rdf:resource="http://purl.org/dc/dcmitype/StillImage" />
        <dc:title></dc:title>
      </cc:Work>
    </rdf:RDF>
  </metadata>
  <g
     inkscape:label="Calque 1"
     inkscape:groupmode="layer"
     id="layer1"
     transform="translate(-40.519152,-183.75965)">
    <g
       id="g49"
       transform="translate(0,-5.3973202)">
      <path
         id="path769"
         d="m 148.72137,196.00456 1.64073,1.72082 c 0.45113,-0.13231 0.88593,-0.22449 1.34152,-0.3674 0.36735,-0.11522 0.67685,-0.23778 1.02784,-0.35451 l -1.83709,-1.54461 c -0.73401,0.21121 -1.44879,0.36385 -2.173,0.5457 z"
         style="fill:#fef100;fill-opacity:1;stroke:#2a4598;stroke-width:0.24296163px;stroke-linecap:butt;stroke-linejoin:miter;stroke-opacity:1"
         inkscape:connector-curvature="0" />
      <path
         id="path772"
         d="m 147.20777,196.33426 1.65675,1.77355 c 0.50248,-0.13607 0.98989,-0.23349 1.49758,-0.38243 l -1.64073,-1.72082 c -0.51004,0.12809 -1.00783,0.21537 -1.5136,0.3297 z"
         style="fill:#2a4598;fill-opacity:1;stroke:#2a4598;stroke-width:0.24296163px;stroke-linecap:butt;stroke-linejoin:miter;stroke-opacity:1"
         inkscape:connector-curvature="0" />
      <path
         id="path775"
         d="m 133.67733,197.97602 0.55966,2.56937 c 4.75849,-0.33607 9.56682,-1.06722 14.62753,-2.43758 l -1.65675,-1.77355 c -4.62329,1.04523 -9.07883,1.51371 -13.53044,1.64176 z"
         style="fill:#fef100;fill-opacity:1;stroke:#2a4598;stroke-width:0.24296163px;stroke-linecap:butt;stroke-linejoin:miter;stroke-opacity:1"
         inkscape:connector-curvature="0" />
      <path
         id="path778"
         d="m 121.85997,197.57658 0.13797,3.08973 c 4.1247,0.15311 8.16718,0.16663 12.23905,-0.12092 l -0.55966,-2.56937 c -3.89257,0.11198 -7.8222,-0.095 -11.81736,-0.39944 z"
         style="fill:#2a4598;fill-opacity:1;stroke:#2a4598;stroke-width:0.24296163px;stroke-linecap:butt;stroke-linejoin:miter;stroke-opacity:1"
         inkscape:connector-curvature="0" />
      <path
         id="path781"
         d="m 120.72102,197.48615 0.0439,3.10885 c 0.40193,0.0175 0.83271,0.0564 1.233,0.0713 l -0.13797,-3.08973 c -0.3779,-0.0288 -0.76225,-0.0632 -1.13895,-0.0904 z"
         style="fill:#fef100;fill-opacity:1;stroke:#2a4598;stroke-width:0.24296163px;stroke-linecap:butt;stroke-linejoin:miter;stroke-opacity:1"
         inkscape:connector-curvature="0" />
      <path
         id="path784"
         d="m 119.73968,197.4081 -0.0765,3.12332 c 0.36003,0.0169 0.7426,0.0481 1.10174,0.0636 l -0.0439,-3.10885 c -0.32458,-0.0236 -0.65696,-0.0549 -0.98134,-0.0781 z"
         style="fill:#2a4598;fill-opacity:1;stroke:#2a4598;stroke-width:0.24296163px;stroke-linecap:butt;stroke-linejoin:miter;stroke-opacity:1"
         inkscape:connector-curvature="0" />
      <path
         id="path1592"
         d="m 110.52578,196.44073 -0.23255,3.53724 c 0.13885,0.0101 0.24603,0.0259 0.38602,0.0357 3.1002,0.215 6.04815,0.38063 8.98395,0.51779 l 0.0765,-3.12333 c -0.96338,-0.0687 -1.92152,-0.13171 -2.91455,-0.23099 -2.23082,-0.22307 -4.18887,-0.48974 -6.29935,-0.73638 z"
         style="fill:#fef100;fill-opacity:1;stroke:#2a4598;stroke-width:0.24296163px;stroke-linecap:butt;stroke-linejoin:miter;stroke-opacity:1"
         inkscape:connector-curvature="0" />
      <path
         id="path1595"
         d="m 101.32479,195.26354 -0.43099,3.78426 c 2.87641,0.35134 5.92689,0.68119 9.39943,0.93017 l 0.23255,-3.53724 c -3.24925,-0.37973 -6.25259,-0.78068 -9.20099,-1.17719 z"
         style="fill:#2a4598;fill-opacity:1;stroke:#2a4598;stroke-width:0.24296163px;stroke-linecap:butt;stroke-linejoin:miter;stroke-opacity:1"
         inkscape:connector-curvature="0" />
      <path
         id="path1598"
         d="m 100.62974,195.16689 -0.44597,3.78428 c 0.25373,0.0318 0.45267,0.0652 0.71003,0.0966 l 0.43099,-3.78426 c -0.26129,-0.0351 -0.43621,-0.0616 -0.69505,-0.0967 z"
         style="fill:#fef100;fill-opacity:1;stroke:#2a4598;stroke-width:0.24296163px;stroke-linecap:butt;stroke-linejoin:miter;stroke-opacity:1"
         inkscape:connector-curvature="0" />
      <path
         id="path1601"
         d="m 99.861826,195.06045 -0.497129,3.77857 c 0.289944,0.0374 0.524653,0.0752 0.819073,0.11215 l 0.44597,-3.78428 c -0.28774,-0.039 -0.48313,-0.0675 -0.767914,-0.10644 z"
         style="fill:#2a4598;fill-opacity:1;stroke:#2a4598;stroke-width:0.24296163px;stroke-linecap:butt;stroke-linejoin:miter;stroke-opacity:1"
         inkscape:connector-curvature="0" />
      <path
         id="path1604"
         d="m 88.804618,193.52512 -0.568957,3.83183 c 3.486335,0.44937 7.081586,0.96081 11.129036,1.48207 l 0.497129,-3.77857 c -4.129112,-0.56396 -7.62058,-1.06032 -11.057208,-1.53533 z"
         style="fill:#fef100;fill-opacity:1;stroke:#2a4598;stroke-width:0.24296163px;stroke-linecap:butt;stroke-linejoin:miter;stroke-opacity:1"
         inkscape:connector-curvature="0" />
      <path
         id="path1628"
         d="m 42.650846,202.5463 -1.781286,-5.11857 c -0.08247,0.0336 -0.14552,0.0597 -0.228927,0.0935 v 6.03166 c 0.635942,-0.35436 1.319772,-0.68244 2.010213,-1.00664 z"
         style="fill:#2a4598;fill-opacity:1;stroke:#2a4598;stroke-width:0.24296163px;stroke-linecap:butt;stroke-linejoin:miter;stroke-opacity:1"
         inkscape:connector-curvature="0" />
      <path
         id="path1625"
         d="m 50.402311,193.8476 c -3.377654,0.94128 -6.059482,2.16477 -9.532751,3.58013 l 1.781286,5.11857 c 2.725992,-1.28002 5.832796,-2.34137 9.161715,-3.2055 z"
         style="fill:#fef100;fill-opacity:1;stroke:#2a4598;stroke-width:0.24296163px;stroke-linecap:butt;stroke-linejoin:miter;stroke-opacity:1"
         inkscape:connector-curvature="0" />
      <path
         id="path1622"
         d="m 50.402311,193.8476 1.41025,5.4932 c 0.32067,-0.0832 0.627938,-0.17823 0.952396,-0.25787 l -1.490348,-5.4906 c -0.308823,0.078 -0.576069,0.17272 -0.872298,0.25527 z"
         style="fill:#2a4598;fill-opacity:1;stroke:#2a4598;stroke-width:0.24296163px;stroke-linecap:butt;stroke-linejoin:miter;stroke-opacity:1"
         inkscape:connector-curvature="0" />
      <path
         id="path1619"
         d="m 51.274609,193.59233 1.490348,5.4906 c 0.684333,-0.16798 1.353978,-0.35059 2.054138,-0.50178 l -1.536857,-5.47769 c -0.734826,0.14319 -1.350096,0.32268 -2.007629,0.48887 z"
         style="fill:#fef100;fill-opacity:1;stroke:#2a4598;stroke-width:0.24296163px;stroke-linecap:butt;stroke-linejoin:miter;stroke-opacity:1"
         inkscape:connector-curvature="0" />
      <path
         id="path1616"
         d="m 64.111551,192.04203 c -4.671965,0.14295 -8.052491,0.52033 -10.829313,1.06143 l 1.536857,5.47769 c 3.196547,-0.69014 6.543777,-1.20631 9.912574,-1.55546 z"
         style="fill:#2a4598;fill-opacity:1;stroke:#2a4598;stroke-width:0.24296163px;stroke-linecap:butt;stroke-linejoin:miter;stroke-opacity:1"
         inkscape:connector-curvature="0" />
      <path
         id="path1613"
         d="m 64.111551,192.04203 0.620118,4.98366 c 3.879669,-0.40208 7.784257,-0.60661 11.525397,-0.5648 l 0.464052,-4.2907 c -0.495379,-0.0475 -1.023424,-0.10475 -1.395264,-0.11525 -2.925781,-0.0825 -5.525889,-0.1139 -7.853267,-0.0992 -1.240409,0.008 -2.267665,0.0528 -3.361036,0.0863 z"
         style="fill:#fef100;fill-opacity:1;stroke:#2a4598;stroke-width:0.24296163px;stroke-linecap:butt;stroke-linejoin:miter;stroke-opacity:1"
         inkscape:connector-curvature="0" />
      <path
         id="path1610"
         d="m 76.721118,192.17019 -0.464052,4.2907 c 0.269581,0.003 0.549764,-0.01 0.81752,-0.004 l 0.383439,-4.22558 c -0.261993,-0.0251 -0.475268,-0.0359 -0.736907,-0.061 z"
         style="fill:#2a4598;fill-opacity:1;stroke:#2a4598;stroke-width:0.24296163px;stroke-linecap:butt;stroke-linejoin:miter;stroke-opacity:1"
         inkscape:connector-curvature="0" />
      <path
         id="path1607"
         d="m 77.458025,192.23115 -0.383439,4.22558 c 0.38032,0.007 0.776142,-0.005 1.152385,0.007 l 0.320392,-4.14237 c -0.37229,-0.0328 -0.702054,-0.0527 -1.089338,-0.0899 z"
         style="fill:#fef100;fill-opacity:1;stroke:#2a4598;stroke-width:0.24296163px;stroke-linecap:butt;stroke-linejoin:miter;stroke-opacity:1"
         inkscape:connector-curvature="0" />
      <path
         id="path765"
         d="m 78.547363,192.32108 -0.320392,4.14237 c 1.534665,0.0495 3.053892,0.11798 4.502049,0.24443 1.797952,0.15703 3.65506,0.41042 5.506641,0.64907 l 0.568957,-3.83183 c -3.997907,-0.55255 -7.370408,-0.94948 -10.257255,-1.20404 z"
         style="fill:#2a4598;fill-opacity:1;stroke:#2a4598;stroke-width:0.24296163px;stroke-linecap:butt;stroke-linejoin:miter;stroke-opacity:1"
         inkscape:connector-curvature="0" />
      <path
         sodipodi:nodetypes="cccc"
         inkscape:connector-curvature="0"
         id="path4953"
         d="m 168.00256,189.27827 c -7.31527,3.94769 -8.93064,3.82749 -17.10819,6.18059 l 1.83709,1.54461 c 8.73139,-2.90388 7.53445,-2.999 15.2711,-7.7252 z"
         style="fill:#2a4598;fill-opacity:1;stroke:#2a4598;stroke-width:0.243;stroke-linecap:butt;stroke-linejoin:round;stroke-miterlimit:4;stroke-dasharray:none;stroke-opacity:1" />
    </g>
  </g>
</svg>
